# xmcd CD database file
#
# Track frame offsets:
#	183
#	32058
#	72970
#	95983
#	120495
#	174370
#	182435
#
# Disc length: 3187 seconds
#
# Revision: 1
# Processed by: cddbd v1.5.2PL0 Copyright (c) Steve Scherf et al.
# Submitted via: CDex 1.51
#
DISCID=570c7107
DTITLE=Rinaldo Donati - Não
DYEAR=1994
DGENRE=Jazz
TTITLE0=Nata
TTITLE1=Nós outros também
TTITLE2=Nuda
TTITLE3=Não encontro nada
TTITLE4=At Moon Sphere
TTITLE5=Settembre
TTITLE6=Aguaviva
EXTD=YEAR: 1994
EXTT0=
EXTT1=
EXTT2=
EXTT3=
EXTT4=
EXTT5=
EXTT6=
PLAYORDER=
